<svg width="63" height="63" viewBox="0 0 63 63" fill="none" xmlns="http://www.w3.org/2000/svg">
<g clip-path="url(#clip0_58_38)">
<path d="M31.0468 62.1178C48.1918 62.1178 62.1178 48.2157 62.1178 31.0707C62.1178 13.9258 48.1918 0 31.0468 0C13.902 0 0 13.9258 0 31.0707C0 48.2157 13.902 62.1178 31.0468 62.1178ZM31.0468 57.6823C16.3342 57.6823 4.43528 45.7835 4.43528 31.0707C4.43528 16.3581 16.3342 4.45911 31.0468 4.45911C45.7595 4.45911 57.6586 16.3581 57.6586 31.0707C57.6586 45.7835 45.7595 57.6823 31.0468 57.6823Z" fill="#1A3D64"/>
<path d="M27.6848 45.6643C28.567 45.6643 29.2824 45.259 29.8069 44.4481L44.4244 21.5326C44.7343 21.0556 45.0444 20.4595 45.0444 19.8872C45.0444 18.7188 43.9951 17.9319 42.922 17.9319C42.2305 17.9319 41.5629 18.3611 41.086 19.1241L27.5893 40.5612L20.8649 32.1439C20.2449 31.333 19.6488 31.0947 18.9334 31.0947C17.7888 31.0947 16.8827 32.0245 16.8827 33.1931C16.8827 33.7653 17.1212 34.3376 17.5027 34.8384L25.4671 44.4481C26.1347 45.3066 26.8025 45.6643 27.6848 45.6643Z" fill="#1A3D64"/>
</g>
<defs>
<clipPath id="clip0_58_38">
<rect width="63" height="62.1654" fill="white"/>
</clipPath>
</defs>
</svg>
