<?xml version="1.0" encoding="UTF-8"?>
<!--Generator: Apple Native CoreSVG 341-->
<!DOCTYPE svg
PUBLIC "-//W3C//DTD SVG 1.1//EN"
       "http://www.w3.org/Graphics/SVG/1.1/DTD/svg11.dtd">
<svg version="1.1" xmlns="http://www.w3.org/2000/svg" xmlns:xlink="http://www.w3.org/1999/xlink" viewBox="0 0 24.6631 20">
 <g>
  <rect height="20" opacity="0" width="24.6631" x="0" y="0"/>
  <path d="M14.3994 19.9219C14.7949 19.9219 15.1904 19.751 15.5322 19.4238L23.7988 11.1572C24.1113 10.8545 24.3018 10.4053 24.3018 9.96582C24.3018 9.52637 24.1113 9.07227 23.7988 8.76953L15.5566 0.527344C15.1953 0.166016 14.7949 0 14.3994 0C13.457 0 12.8027 0.65918 12.8027 1.53809C12.8027 2.0166 13.0029 2.39746 13.3057 2.69043L16.3477 5.75195L20.8984 9.96582L16.3477 14.1748L13.3057 17.2266C13.0078 17.5244 12.8027 17.9053 12.8027 18.3887C12.8027 19.2627 13.457 19.9219 14.3994 19.9219ZM1.66992 11.582L16.5381 11.582L21.1768 11.3281C22.0361 11.2842 22.6074 10.7764 22.6074 9.96582C22.6074 9.14551 22.0361 8.6377 21.1816 8.59375L16.5381 8.34961L1.66992 8.34961C0.673828 8.34961 0 8.99902 0 9.96582C0 10.9229 0.673828 11.582 1.66992 11.582Z" fill="white" fill-opacity="0.85"/>
 </g>
</svg>
