<svg width="1024" height="1024" viewBox="0 0 1024 1024" fill="none" xmlns="http://www.w3.org/2000/svg">
<g clip-path="url(#clip0_1_1752)">
<path d="M855 -1V1024" stroke="#E1E4E8" stroke-width="6"/>
<path d="M684 -1V1024" stroke="#E1E4E8" stroke-width="6"/>
<path d="M513 -1V1024" stroke="#E1E4E8" stroke-width="6"/>
<path d="M342 -1V1024" stroke="#E1E4E8" stroke-width="6"/>
<path d="M171 -1V1024" stroke="#E1E4E8" stroke-width="6"/>
<path d="M1024 854L-1 854" stroke="#E1E4E8" stroke-width="6"/>
<path d="M1024 683L-1 683" stroke="#E1E4E8" stroke-width="6"/>
<path d="M1024 512L-1 512" stroke="#E1E4E8" stroke-width="6"/>
<path d="M1024 341L-1 341" stroke="#E1E4E8" stroke-width="6"/>
<path d="M1024 170L-1 170" stroke="#E1E4E8" stroke-width="6"/>
<path d="M513.345 808.923C349.879 809.39 216.313 676.584 215.846 513.116C215.38 349.879 348.186 216.313 511.651 215.846C674.89 215.38 808.456 348.186 808.922 511.423C809.389 674.891 676.583 808.457 513.345 808.923ZM421.644 427.609C415.93 419.429 404.766 417.412 396.816 423.126C387.955 429.754 386.392 440.687 393.02 450.002C404.904 465.905 412.029 488.879 412.096 512.101C412.163 535.778 405.17 558.795 393.375 574.308C386.574 583.662 388.198 595.042 397.325 601.39C405.307 606.831 416.23 604.751 422.127 596.766C438.454 574.18 447.928 542.962 447.839 511.999C447.749 480.354 438.096 448.963 421.644 427.609ZM500.265 374.337C493.867 365.932 483.389 363.913 475.209 369.855C467.256 375.342 465.239 386.504 471.413 395.593C494.266 426.263 507.135 467.889 507.26 511.83C507.386 555.77 494.755 597.47 472.077 628.269C465.955 637.395 468.036 648.544 476.02 653.986C484.234 659.882 494.701 657.803 501.05 649.362C528.266 612.4 543.152 563.637 543.004 511.728C542.858 460.501 527.693 411.824 500.265 374.337ZM579.343 321.064C572.942 312.203 562.236 310.185 554.057 315.9C545.65 322.071 544.314 332.775 550.486 341.409C583.859 387.759 602.701 448.265 602.881 511.557C603.063 575.304 584.794 635.461 551.459 682.001C545.336 690.67 546.732 701.367 555.175 707.491C563.615 713.386 574.31 711.306 580.431 702.18C618.068 647.661 638.367 580.668 638.17 511.456C637.972 442.017 617.29 374.914 579.343 321.064Z" fill="#234C6A"/>
</g>
<defs>
<clipPath id="clip0_1_1752">
<rect width="1024" height="1024" fill="white"/>
</clipPath>
</defs>
</svg>
